<mxfile host="app.diagrams.net" modified="2023-05-25T16:53:07.500Z" agent="Mozilla/5.0 (Macintosh; Intel Mac OS X 10_15_7) AppleWebKit/537.36 (KHTML, like Gecko) Chrome/112.0.0.0 Safari/537.36" etag="1awz-XGi9jguU42luBfY" version="21.1.2" type="github">
  <diagram name="Страница 1" id="XMSDh3Ag2Xe2g-SVvd6X">
    <mxGraphModel dx="954" dy="648" grid="1" gridSize="10" guides="1" tooltips="1" connect="1" arrows="1" fold="1" page="1" pageScale="1" pageWidth="827" pageHeight="1169" math="0" shadow="0">
      <root>
        <mxCell id="0" />
        <mxCell id="1" parent="0" />
        <mxCell id="iBDUrOjcWUxjxp99Zuq8-5" value="" style="edgeStyle=orthogonalEdgeStyle;rounded=0;orthogonalLoop=1;jettySize=auto;html=1;" edge="1" parent="1" source="iBDUrOjcWUxjxp99Zuq8-1" target="iBDUrOjcWUxjxp99Zuq8-3">
          <mxGeometry relative="1" as="geometry" />
        </mxCell>
        <mxCell id="iBDUrOjcWUxjxp99Zuq8-6" style="edgeStyle=orthogonalEdgeStyle;rounded=0;orthogonalLoop=1;jettySize=auto;html=1;exitX=1;exitY=0;exitDx=0;exitDy=0;entryX=0;entryY=1;entryDx=0;entryDy=0;" edge="1" parent="1" source="iBDUrOjcWUxjxp99Zuq8-1" target="iBDUrOjcWUxjxp99Zuq8-2">
          <mxGeometry relative="1" as="geometry" />
        </mxCell>
        <mxCell id="iBDUrOjcWUxjxp99Zuq8-7" style="edgeStyle=orthogonalEdgeStyle;rounded=0;orthogonalLoop=1;jettySize=auto;html=1;exitX=1;exitY=1;exitDx=0;exitDy=0;entryX=0;entryY=0;entryDx=0;entryDy=0;" edge="1" parent="1" source="iBDUrOjcWUxjxp99Zuq8-1" target="iBDUrOjcWUxjxp99Zuq8-4">
          <mxGeometry relative="1" as="geometry" />
        </mxCell>
        <mxCell id="iBDUrOjcWUxjxp99Zuq8-1" value="1" style="rounded=0;whiteSpace=wrap;html=1;" vertex="1" parent="1">
          <mxGeometry x="80" y="240" width="40" height="40" as="geometry" />
        </mxCell>
        <mxCell id="iBDUrOjcWUxjxp99Zuq8-2" value="A" style="ellipse;whiteSpace=wrap;html=1;aspect=fixed;" vertex="1" parent="1">
          <mxGeometry x="160" y="160" width="40" height="40" as="geometry" />
        </mxCell>
        <mxCell id="iBDUrOjcWUxjxp99Zuq8-3" value="B" style="ellipse;whiteSpace=wrap;html=1;aspect=fixed;" vertex="1" parent="1">
          <mxGeometry x="160" y="240" width="40" height="40" as="geometry" />
        </mxCell>
        <mxCell id="iBDUrOjcWUxjxp99Zuq8-4" value="C" style="ellipse;whiteSpace=wrap;html=1;aspect=fixed;" vertex="1" parent="1">
          <mxGeometry x="160" y="320" width="40" height="40" as="geometry" />
        </mxCell>
        <mxCell id="iBDUrOjcWUxjxp99Zuq8-8" value="-400" style="text;html=1;strokeColor=none;fillColor=none;align=center;verticalAlign=middle;whiteSpace=wrap;rounded=0;" vertex="1" parent="1">
          <mxGeometry x="110" y="190" width="60" height="30" as="geometry" />
        </mxCell>
        <mxCell id="iBDUrOjcWUxjxp99Zuq8-9" value="-200" style="text;html=1;strokeColor=none;fillColor=none;align=center;verticalAlign=middle;whiteSpace=wrap;rounded=0;" vertex="1" parent="1">
          <mxGeometry x="110" y="230" width="60" height="30" as="geometry" />
        </mxCell>
        <mxCell id="iBDUrOjcWUxjxp99Zuq8-10" value="Откладываем открытие" style="text;html=1;strokeColor=none;fillColor=none;align=center;verticalAlign=middle;whiteSpace=wrap;rounded=0;" vertex="1" parent="1">
          <mxGeometry x="70" y="300" width="90" height="30" as="geometry" />
        </mxCell>
      </root>
    </mxGraphModel>
  </diagram>
</mxfile>
